<mxfile host="app.diagrams.net" agent="Mozilla/5.0 (Macintosh; Intel Mac OS X 10_15_7) AppleWebKit/537.36 (KHTML, like Gecko) Chrome/137.0.0.0 Safari/537.36" version="27.0.6">
  <diagram name="Page-1" id="MnOJoJXMJSNFYsBJcmpG">
    <mxGraphModel dx="777" dy="559" grid="0" gridSize="10" guides="1" tooltips="1" connect="1" arrows="1" fold="1" page="1" pageScale="1" pageWidth="850" pageHeight="1100" math="0" shadow="0">
      <root>
        <mxCell id="0" />
        <mxCell id="1" parent="0" />
        <mxCell id="wqFsDlphDBnR6IoxysdR-32" value="" style="rounded=0;whiteSpace=wrap;html=1;fillColor=#eeeeee;strokeColor=#36393d;gradientDirection=east;" vertex="1" parent="1">
          <mxGeometry x="60" y="290" width="190" height="250" as="geometry" />
        </mxCell>
        <mxCell id="wqFsDlphDBnR6IoxysdR-11" value="" style="group" vertex="1" connectable="0" parent="1">
          <mxGeometry x="530" y="470" width="90" height="80" as="geometry" />
        </mxCell>
        <mxCell id="wqFsDlphDBnR6IoxysdR-3" value="" style="rounded=1;whiteSpace=wrap;html=1;" vertex="1" parent="wqFsDlphDBnR6IoxysdR-11">
          <mxGeometry width="90" height="80" as="geometry" />
        </mxCell>
        <mxCell id="wqFsDlphDBnR6IoxysdR-4" value="" style="shape=image;verticalLabelPosition=bottom;labelBackgroundColor=default;verticalAlign=top;aspect=fixed;imageAspect=0;image=https://upload.wikimedia.org/wikipedia/commons/thumb/a/a1/Grafana_logo.svg/1200px-Grafana_logo.svg.png;" vertex="1" parent="wqFsDlphDBnR6IoxysdR-11">
          <mxGeometry x="16.279999999999973" y="6.639999999999986" width="57.44" height="58.71" as="geometry" />
        </mxCell>
        <mxCell id="wqFsDlphDBnR6IoxysdR-17" value="" style="group" vertex="1" connectable="0" parent="1">
          <mxGeometry x="330" y="470" width="90" height="83" as="geometry" />
        </mxCell>
        <mxCell id="wqFsDlphDBnR6IoxysdR-2" value="" style="rounded=1;whiteSpace=wrap;html=1;" vertex="1" parent="wqFsDlphDBnR6IoxysdR-17">
          <mxGeometry width="90" height="80" as="geometry" />
        </mxCell>
        <mxCell id="wqFsDlphDBnR6IoxysdR-6" value="" style="shape=image;verticalLabelPosition=bottom;labelBackgroundColor=default;verticalAlign=top;aspect=fixed;imageAspect=0;image=https://res.cloudinary.com/canonical/image/fetch/f_auto,q_auto,fl_sanitize,c_fill,w_200,h_200/https://api.charmhub.io/api/v1/media/download/charm_VpRGTlLZZh1ON756aodclPgvrXBZHrCN_icon_8c11d3992fe825a76f70adbf5cdb4b61a7923e5e3fb13ed742717e6360741dc7.png;" vertex="1" parent="wqFsDlphDBnR6IoxysdR-17">
          <mxGeometry x="20.319999999999993" y="9.639999999999986" width="49.36" height="49.36" as="geometry" />
        </mxCell>
        <mxCell id="wqFsDlphDBnR6IoxysdR-12" value="Loki" style="text;html=1;align=center;verticalAlign=middle;whiteSpace=wrap;rounded=0;fontStyle=1" vertex="1" parent="wqFsDlphDBnR6IoxysdR-17">
          <mxGeometry x="11.680000000000007" y="53" width="60" height="30" as="geometry" />
        </mxCell>
        <mxCell id="wqFsDlphDBnR6IoxysdR-19" value="" style="shape=image;verticalLabelPosition=bottom;labelBackgroundColor=default;verticalAlign=top;aspect=fixed;imageAspect=0;image=https://blog.quentin-favrie.net/assets/images/grafana-03.jpg;" vertex="1" parent="1">
          <mxGeometry x="150" y="770" width="460" height="160.23" as="geometry" />
        </mxCell>
        <mxCell id="wqFsDlphDBnR6IoxysdR-29" value="" style="group" vertex="1" connectable="0" parent="1">
          <mxGeometry x="280" y="120" width="60" height="60" as="geometry" />
        </mxCell>
        <mxCell id="wqFsDlphDBnR6IoxysdR-28" value="" style="rounded=1;whiteSpace=wrap;html=1;" vertex="1" parent="wqFsDlphDBnR6IoxysdR-29">
          <mxGeometry width="60" height="60" as="geometry" />
        </mxCell>
        <mxCell id="wqFsDlphDBnR6IoxysdR-26" value="" style="shape=image;verticalLabelPosition=bottom;labelBackgroundColor=default;verticalAlign=top;aspect=fixed;imageAspect=0;image=https://www.structlog.org/en/stable/_static/structlog_logo.svg;" vertex="1" parent="wqFsDlphDBnR6IoxysdR-29">
          <mxGeometry x="11.553333333333322" y="4.5" width="37.1896875" height="32.8125" as="geometry" />
        </mxCell>
        <mxCell id="wqFsDlphDBnR6IoxysdR-27" value="&lt;font style=&quot;font-size: 8px;&quot;&gt;Structlog&lt;/font&gt;" style="text;html=1;align=center;verticalAlign=middle;whiteSpace=wrap;rounded=0;fontStyle=1" vertex="1" parent="wqFsDlphDBnR6IoxysdR-29">
          <mxGeometry x="10" y="37.5" width="40" height="22.5" as="geometry" />
        </mxCell>
        <mxCell id="wqFsDlphDBnR6IoxysdR-34" value="" style="rounded=1;whiteSpace=wrap;html=1;container=0;" vertex="1" parent="1">
          <mxGeometry x="350" y="120" width="60" height="60" as="geometry" />
        </mxCell>
        <mxCell id="wqFsDlphDBnR6IoxysdR-35" value="" style="shape=image;verticalLabelPosition=bottom;labelBackgroundColor=default;verticalAlign=top;aspect=fixed;imageAspect=0;image=https://www.structlog.org/en/stable/_static/structlog_logo.svg;container=0;" vertex="1" parent="1">
          <mxGeometry x="430.00333333333333" y="120" width="37.1896875" height="32.8125" as="geometry" />
        </mxCell>
        <mxCell id="wqFsDlphDBnR6IoxysdR-36" value="Structlog" style="text;html=1;align=center;verticalAlign=middle;whiteSpace=wrap;rounded=0;fontStyle=1;container=0;" vertex="1" parent="1">
          <mxGeometry x="450" y="157.5" width="40" height="22.5" as="geometry" />
        </mxCell>
        <mxCell id="wqFsDlphDBnR6IoxysdR-69" style="edgeStyle=orthogonalEdgeStyle;rounded=0;orthogonalLoop=1;jettySize=auto;html=1;entryX=0.5;entryY=0;entryDx=0;entryDy=0;endArrow=openAsync;endFill=0;dashed=1;dashPattern=1 1;flowAnimation=1;exitX=0.5;exitY=1;exitDx=0;exitDy=0;" edge="1" parent="1" source="wqFsDlphDBnR6IoxysdR-59" target="wqFsDlphDBnR6IoxysdR-21">
          <mxGeometry relative="1" as="geometry" />
        </mxCell>
        <mxCell id="wqFsDlphDBnR6IoxysdR-70" value="&lt;font style=&quot;font-size: 6px;&quot;&gt;scrape @ 5s&lt;/font&gt;" style="edgeLabel;html=1;align=center;verticalAlign=middle;resizable=0;points=[];" vertex="1" connectable="0" parent="wqFsDlphDBnR6IoxysdR-69">
          <mxGeometry x="-0.149" y="1" relative="1" as="geometry">
            <mxPoint as="offset" />
          </mxGeometry>
        </mxCell>
        <mxCell id="wqFsDlphDBnR6IoxysdR-39" value="" style="shape=image;verticalLabelPosition=bottom;labelBackgroundColor=default;verticalAlign=top;aspect=fixed;imageAspect=0;image=data:image/png,iVBORw0KGgoAAAANSUhEUgAAAHIAAAByCAYAAACP3YV9AAABWmlDQ1BJQ0MgUHJvZmlsZQAAKJFjYGBiSSwoyGFhYGDIzSspCnJ3UoiIjFJgf8nAyiDPIMQgzaCSmFxc4BgQ4ANUwgCjUcG3awyMIPqyLsis4wtcjrJULuw/2MV5Xk733TJM9SiAKyW1OBlI/wFireSCohIGBkYNIDugvKQAxK4AskWKgI4CsntA7HQIewGInQRhbwGrCQlyBrJPANkCyRmJKUD2DSBbJwlJPB2JnZtTmgx1A8j1PKl5ocFAmg+IZRg8GAIYFBiMGEwYchkygGGDXa0JWK0zQz5DAUMlQxFDJkM6UHUJUKcjUKSAIYchFcj2ZMhjSGbQY9ABm2gAxKagMEYPO4RYylMGBuNcUDggxLIEGBh2f2NgENyKEFN/CPTGXAaGAwEFiUWJ8BBl/MZSnGZsBGFzb2dgYJ32///ncAYGdk0Ghr/X////vf3//7/AeGG+BdT7DQDYSWNfJwYHiQAAADhlWElmTU0AKgAAAAgAAYdpAAQAAAABAAAAGgAAAAAAAqACAAQAAAABAAAAcqADAAQAAAABAAAAcgAAAABTtrAsAAAROklEQVR4Ae2dd4wcVRKHyxEbR8Amh10kksDwB0GIDCIv8dAZOIMtQCSRZR9JgAz4QIAQIgqBACFAR5Zsgw1HMkgEA7IRIIJA2GQwSQTba3t3+95XO9X0zvbOdvdM98709NP2dnqxfq/qVdV7/WaQ54IUoeEpMLjhW1A0QClQAJmTjjA0J+2ouhmMMByDBg3y87L74DP/ZUoXVmbc7AuOdBTr6uryQeSaAEHtbNf6IM1/JW2F8jisLlGKLDiyRCUjXGdnp3zzzTfy3nvvCdcECJoFVw4ZMkRaW1tlq622ktGjR2u5gwdH5DXXgKYPDjDPgeWtWLHCW7RokecI6Y0aNcpzhPXWWmstb+jQofBK6gdlTZw40Tv11FO9n3/+WesUFRxYuOlDV2eXt2rVKu/zzz/3WlpavOHDhyt4AMmRFZB0FsobO3asN3XqVK+joyMyNk0pWh11kJj+uNjZ1SkORDnssMPkhx9+kNWrVwsijWPYsGHigNT4af9zwEl7e7v89ddf8tZbb8kff/wh66yzTqRis6lhpKpkG8nAZPz79NNPpa2tTUHkuYHouEN23HFHOeusszKp3MMPPyyvvPKKluVEq47VBZAVSA94gIUy89lnn8lRRx0ly5Yt8zkUDjRFZ5NNNpGTTjpJADXtsHDhQlmwYIFfjNfVLTn8BxUumpIjDUQ48eijj5bvvvtOxSmaKe+CWioAcmShtYIT5fjH4L9t2goY6quIum1/2dT3e8SlHYDE8eWXX8qJJ54o3377rTA2EcaPHy/33nuvnolj4jfL1iEJrOw4nSf3HGlgQBwLX331lRx++OHy9ddfqwglzrrrrisvvfSSRoErBypYfeOWP3A1jlvThPHp1RAH8QiYcOARbUcoR65Zs0afwYmvvvqqbLPNNqqlJixqQJPlHkhABEzEJx4bOHHJ0iW++Bo3bpzMnTtXNt98cwUxKUcMKIqu8IYTrUZouOu3336TWbNmyUcffeTT0d77D0oXPEczXbJkidpqNv5gJ15++eW+rYgNt3LlSuViynjzzTfl4IMP7pEdaRHFM2fOlJaWFnEOBFWSekTK+sY1sGGCI6y6rZxI9Jym6e29997emDFj1POC94XDETl1V5obQ72RI0d6G220kXfNNdd4f/75Z01o6OxVrbsbBjzXUbwPPvggcr4NJVpNRP70009y/PHHy9tvv63cw3MO1+pM+ABORVT/8ssvctttt8mvv/6qojqTwvsopKFEK6o5Nt/JJ58s7777rgIHgBYmTJiQiYijwwAeZ9xoN954ox5rr722VSXzc8MAaSCec8458s477yhHwBWYCmikjFPPPvusOIdz6kSk3J122knLgTtffvllHXcLIPsgPT2eA2L9+OOPcv7556svEqc2zy0AMpzZ4hSP9dZbzx6ndqZ8ygNQ6haUCqkV2k/Gdc2REAhCIcbOOOMMWeD8kACILxRtE25cvnx5P01sjtd1rezAab///rucd9558tprr6k/FC5AhF122WWy7777NgdKEVpZt0DCedh0p512mhrszNPBoYB4ySWXqJitB5EWgcaZREkPSDeEIRY54Cwb6+w6OMZZS4nLcwMRcfrCCy/4E73OdlMAAdKCud7sPuxsefKOMvIYUhsjmXWHYyCiOaHtHmLyjHfBwDPe4VlBnM6fP9+fXhoxYoRccMEFcsUVV/hJSE/HsPx5UZ6nRabsvIJIG1MDksxN9GFr3XfffXLDDTcoMLzrKxjYjIUc1hEA95ZbbpHbb79d8wUU3sORgOnW3MiWW27ZA1TK4P1BBx0kmC177rlnX8U2/PPUgDQuce4rOffcc+WZZ54Rt0pNQYDwAFHOIRAd4ACTgzw4AxjXgInGSjri2Zl35EmHKQ/EnzNnjipLjz/+uOyxxx7lUXJxX7MxEsIGiQuRUVaw/Zhd4Bpi2wFo5SEIMOAxzWRcae+w4XhmIFKmvSvPj3viwa2YMKeffroa7mHxGv1ZzTkSwjp+Uvtu+vTpMnv2bH82AWLBPXhf3PrNTGjHDAkLmQCTM2t0WFCVt1BzICHQipUrZObMmfLEE08oByi4TkRyJkDIR//7qF6n/W/Wf2bJXXfdpR0ITs6rA6FmQBpI2HvMEd5///0KImKPcY5g4x4a6ISJE1QRSRtIt2K8R/lWz7TLzTr/5GNkwHIwjgPEm266STmAa8YzQNttt93UkKdxxOVAxGYVrANpPZ3Yz2NITE0DxM5opLfeequaCIxHKCpwA1oi0zwAagpKliACmilHCmA+cUxmRwIeHVvPjjqAeM8998h1112nXAhgeGEYCx955BFVMpSIxb/UKJCIIxFVgMXZQLz66qtVkeA53AeI2I6sUMuaA1OjVh1nnAjIICc++eSTcu211yqI2IZML+2+++7qXmOFWpi9WMf0aNiqRdZajQMBEU5kHJw7Z676P1Hp4Tq8KHvttZcA7tgxbqY+p+NRPaIdCUgDzzgRbRQbESc2IMJ1HMwP4sVRUVqAmCnesUQrnIg2+thjj8lFF12kdqKBuP/++ysnFqI0U/z8wqID6RRVjHtAvPDCC1XJAVTE6S677CIPPfSQKjnkbJzrl1JcpE6BUNFqQDAuDh7kZiDc511rOtbI008/LfhPzc2FibHddtvJnNlzZNz4cb4HpRm5ki+MGXKgndEPCRYM3KMMHnLIIToUlb8Pxo17HQqkZcJYR2EY1HzkwnQU01JmYmy//fZqYgRBtLTNdsYt+fHHH2uzDcwwoHjGouYTTjhBQa0VnUKB9HuUUzs7Ojt03SaLgpmKIrjdJ2TSpEny1FNPCSZGEUS5EU0ergQsOjuHBZ4ZYyxatFhXytu7WpxDgbSeREX4pp1Pr5m0hTMRp9iJeHLWX3/9wtgvocBHPRtuuGEP8MIAwlFy8cX/rrl9HQokFQBE1sy4PV8URBQdc4Cz3GKLLbbw62nA+w/cBVxtz+1beHokRx7H0LvvvltGjhjpNuMJzCYECeKuoQfSLOoGD2XJK972CSTuNVaxwYmACvG33nprueqqq1ScMklbKZh4Rtw88MAD/sw8Ddl5550rJW3Id7gi4cqBCr2AhPP4BJv1pGinAGJzityzFBGuihLogXx0wzIL0pKOGRG3GVAPjo2SVxGnMgV6AYltOG3aNF87JTncCKB8JPrFF1/odXAgDyuCNADHuIqtaSBOnjxZx1YTu2Fpi2fxKdALSAAzsWniEY40MK0Ie2f3YWfSASC2EyL1uOOOkyuvvFIVprD49faMNlbV4Wy47GlOptLMXkBSCpXngJvYpRAQACROID2cCIez0AotF7vTfWFcHXHiVKKPuNoJITIEdmccHsHAeyQObeaaI0r7SRMKvCvD9IxgObW8DgWSSgMiZ7acfPHFF3VeMU7BVBwCaKdwFEObY3UdwQgFl2cdqJetr7W6hBGfOtIR+e7S6l2prqy5Rau3PC0ubcxij4FQIGkswc40iiNOMOJABPflf3ePLvVM3kXp4XHKixoXpevMM8/UaTjqQbusrsE8qN+RRx4pk/85WYYOCyVTMLquVfr+++970am1tVUXo9Ep0gyhuQMgjbMGBq+jVgYC4aeFE4cM7laWuIZAcTtF1DKjxIMb+bIZQJE6cAxjebBOPKPNbL67zz77yMYbb6zx+sqftK+//rp8+OGHOpSQ1mjIGl58q8wOpRlCgTQlxTgySQX8TlASp8HOYO+S5JtVGuqIbmAad9xySW9Spxo6Ri03FMioiRsxHt9XHnjggf2KVkCcMX2GsMEEHNdf59t1112FnSSNEy0NbkxWEvI8TZ2g6YDEIcHiaeMWI3iwU/KM95hNJmaD78Ou2XQJ7w6Ak94C+aAE9dcRLH7Sc9MBCWExqdxwreaHgRYkoIlCI76dg3HKr+F0jh5xS2WU51eethb3TQckRFNil0zHHoQvUdS4NS6Be6VzZdBR0hSpVsd4Vr6lKs6RKRDWUSInjhGxADIGsdKOWg3oBZBpo5NR/jUZI/GnssEe4wG9Ss8l+zH1drhxiDIxE6KMRdSVn4RA2cFBYYE8mE9EU62GMyy/rM+JgQQsAoRhl8bgHCPv7H3aDYLoLD+ZN2+e2nEAUSng2TnggAN8f6t2OpcHigqz/G7rUN9nWimfenuXDMhSR8aPCmFmzJgh7BNusx0QF5U7bTApx3yYrGK78447RSrjqJ/BM9mNi45gQJIXv+/xxhtvqEeH+0YKyYCkjYDpzhASkYRtBlEwftMGMEhgCM5xzDHH9JqOCsaza8QvXhsDMFhXOJv2NBqItC0ZkC4hjYUIGMEsXJ4/b760r2rPFEQaQD3cTsb68VAUAKgvi8dwmFuwdOzHk8bCKCsnzXNiIKkUBOCAC4/9x7Fp1rNmeeOiw9eat1CYHzlBtACyADInFMhJMxJzJIoOB5PQaLB2tudp0YdytCxXAGUVoZsCiYAMgoUhzZoclB629iQYobuLqO1/H7wCwx6ETay1mspObnh3li5dqhwCoU2b7VFSDW+w9zbbbLMa5tj4WSUCEqBsspRlgOyv8+CDD6ptxvMgyGmQiE/52HCCT/uK0E2BREAa8eC+jjUd+q0IvwIXnFg1oC1uLc50EDwzfBj0ySef1BWQrM7nI2CCSaW4bSY9niV/+IiRQSIggwUNGz5MDj30UBWtMcpNHBUwMer55L2ewtlnn61biFbTgfH/0j4YAg9UnI+IEwGJs5wpIAplvLr00ktlypQpmdCVToQnadNNN03c89OoKD9rwW92oegBJvWMCyoAwpGsTOeDWFbgRQ2JgMRZDphUFDBxQvNpQRbBiES5QcmQRdmVyqA+BIBE/BttKqUpfweAdNJtt91Wd9jkPmpIBKQRUFeSl7TUqAVWGw+CJSFSteX2l54V5cwCGW36ix/2np+D4kPi/fbbTyfKw+L09SwRkNb7jDP7yjyN55SN+CH49UijoJh5shPYQH6xnMghELONRfQMKFAAmQGRsyiiADILKmdQRqIxknrpoF5a7rF61Wp5/n/P+zuAJB272MZlh0k7qKHf3yKqpLSh3sG6k0+S+lqatOoZt31VAUlj8EawFw9fNZs2mVRzIz9sKVbltba2+kpN3EZFio8J5cqrpq6kDS4ZiVRuSpESAUkDIILZkrjngu4l3ichENoodthzzz2nK9rSaHP7ynb9gJVyDEjOcYIZ/baONm76OGVFjZsISCMA3h1cSTfffLNuc2bGOg2ksUnCBhtsIFP+NSXSYuMk+S9fsVymTpuqyyItfZJOZx2BPPBqQYeBDImApMJwI3+MEXzkyafXtRAz+FHxMQYd8LUkEACwOSLrcZl+o/7UOy6YdGbqyHTaKaecom61WtYzbl6JgQREAg2CGCxJbKQAcElnGpA4bDPT0tKiG/OzhDKtjheVpsmBjFpCncWD49nVA27sDvTI+MsN2DOora1N18HG8YmmRY6mBPL666/vVtacNIEzkygrpENMw51J86glqE3nEFBd2wFYbQD8htdaqyXCgKZ3GAY5MHgdt17VpI1bVn/xm44j+yNIo74vgGxU5MrqXVHZQXRg5GNn/a3lleVQ57fmNqzzalZdvVAgsa9M/i9btkxnretBxU7S2oULF/ZQSgba3kvShihpBjnVuYcRxc8d8KsC/OQ76jUNN1CjZFhvcYIcyeaAixcvjr1lab21KbQ+ABkMDjzP7WnuOW+F59Rrz3Gn54AE7IY8aIOTJp5bD+O5zX892pfH0IsjQRuufP/999UDwh7mrLekZzdiwJODP5QfKmW7zdGj3PZl1ZuRdUeKUCCpJWKVn4pgeiqJU7leWsp4D5j4Rlm2mdfQJ5B5bXBe21XYkTlBtgCyADInFMhJMwqOLIDMCQVy0oyCIwsgc0KBnDSj4MgCyJxQICfNKDgyJ0D+H3dFgH+gkteIAAAAAElFTkSuQmCC;" vertex="1" parent="1">
          <mxGeometry x="141.67000000000002" y="416.33" width="24.67" height="24.67" as="geometry" />
        </mxCell>
        <mxCell id="wqFsDlphDBnR6IoxysdR-40" value="" style="shape=image;verticalLabelPosition=bottom;labelBackgroundColor=default;verticalAlign=top;aspect=fixed;imageAspect=0;image=data:image/png,iVBORw0KGgoAAAANSUhEUgAAAEsAAABZCAYAAAB2UNl6AAABWmlDQ1BJQ0MgUHJvZmlsZQAAKJFjYGBiSSwoyGFhYGDIzSspCnJ3UoiIjFJgf8nAyiDPIMQgzaCSmFxc4BgQ4ANUwgCjUcG3awyMIPqyLsis4wtcjrJULuw/2MV5Xk733TJM9SiAKyW1OBlI/wFireSCohIGBkYNIDugvKQAxK4AskWKgI4CsntA7HQIewGInQRhbwGrCQlyBrJPANkCyRmJKUD2DSBbJwlJPB2JnZtTmgx1A8j1PKl5ocFAmg+IZRg8GAIYFBiMGEwYchkygGGDXa0JWK0zQz5DAUMlQxFDJkM6UHUJUKcjUKSAIYchFcj2ZMhjSGbQY9ABm2gAxKagMEYPO4RYylMGBuNcUDggxLIEGBh2f2NgENyKEFN/CPTGXAaGAwEFiUWJ8BBl/MZSnGZsBGFzb2dgYJ32///ncAYGdk0Ghr/X////vf3//7/AeGG+BdT7DQDYSWNfJwYHiQAAADhlWElmTU0AKgAAAAgAAYdpAAQAAAABAAAAGgAAAAAAAqACAAQAAAABAAAAS6ADAAQAAAABAAAAWQAAAAC944FjAAAJcElEQVR4Ae2cSYxNSxiAq1ubacJrY4IFYSEsRGLxemMKYg6JrWGnH8kTEexEYlqIuZGYxQoLFrSIhVgQK4kEibcQU2LsQWtTn1ff3/2fd0jfe0/dW+fq2+9U59xzuk6dqv//6q+/hjOUBTaYNMQiUB4rVZpICKSwHAwhhZXCciDgkDS1LAdYFQ5pvSRtbW01ZWVlhk6YPVuxgnT89P3tRaoMWn4uWYoOC8F+/PhhysvbjDpotdIXgZeOkMrLyk1g/zT8CkzjO9oXHRa119TYZPbt32cOHTpkvn371pFcicVVVFSYFStWmNWrV5vJkydLObGB2YRFDe/evQtmzZoV9O/fP+jZs2dgLYxqTnyzkKS87t27B/369QtGjRoV3L9/P7BuIbCWLlsuEPiORIMKw76+vj6YN2+egEJoFNCtW7dugbW6xOD16NEjoAzK5bh3794iy+fPn0NguUAk3gzxT5h+Y2OjWbVqlbl9+7Y0PXX0+K4BAwaYQYMGhY4/qTaIC3jz5o35+PGjofwHDx6Y169fm9GjR0uHk6vcxGEB49OnT6ampsbU1dWZlpaW0MEjPNv8+fPNjh072hojzv4//5tL/vjnbb4AwlfdvHlTjr98+WKsZUke2uFkyzBRWPR0DfUNZvOWzebSpUsG4QhRwYBlm4SpqqoKhxHE+Q62iQkg6yd/siLiCexzlZvYoJRabGhsA3X27FkBhUC9evUyM2fOlD1pNOQSVNPluyd/raTv37+LdWtenItTvldYwGBDmIaGBrNt2zZz7tw58VHE9enTR5rc1q1bDTVM0BpVgeMIrUq67jVvlVPLJh89ly1Pr7AoEIcOqN27d5tjx46Z5uZmEaRv375mzpw55siRI6ayslJkiiNgNuGLfc6rz6KmcOY466NHj4ozpydkW7BggcADGgFQbNo0iq14PuV5sywB1fTJHDx4MLQoQNDcli9fbk6cOGEUFPHaFKJ+Kx8FinlNQbBQmG6ePc2t9mitNL+mpiaxGkAtWbLE1NbWCjTSiUW1TwbxY5JHMTUuoKyCmqEoant5hgQHDhwwO3fulGMsh16Ppnfy5EkRDwuyI+gCRP39lxZkWVgJ1nH48GEBhUUxMQbU0qVLpempiqQt9VCQZWEtWNT27dvDXo8B5owZMyTezsFCPsAifSk59FD49gMnWFH/gkWdPn06BMWQgXEUA06anp3ZSxFRiyplUCjj1AxVcUBdvXrVbNq0SSyK/4Eze/Zs6QmZGJc6mHZj+mnnBAvLoimdOXPGrFmzRpw5oLTpMeAcPHhwOCz4qaQu8I8TLECdOnVKLIrBJ70goBYtWmT2798fgsICo022C3ASFXL6LJRGeXo5fBRNj16PQK9nVz3Fb40YMaJtDJUDlFhn0CowGUrQXNmicLW5SyGd6CcrLBRgw4JYOVAfhYWh6KRJk8yWzVsMvR6LanGUJK+9e/cKfAU+ceLE0ocFlK9fv5rLly8LKFY7AaKDSybMNX/VyP9A5VzUQjoyiufPn5sPHz6Ei24DBw40c+fODZPGAR4mLvJBVstCFlYS169fL00PSAwR2AhPnjyRY21GgAJwthCFQa9J3sVYUs4mU9xzWWEBh94OS9AAEOLxYYCJDhE4l8uy7A0Dw4a/W7t2rVm5cqWMz8gfkFGYWmZn2WeFpUIqBJZaGHgyQc5XMfKiMzh+/LiZMGGC5NeZASkD9rFgkRAlsbLp06eLswcawVVRrJG89DprS5JPKfzEhoUyUX+E36I5orhLiILiOttwLa7SABYbFpaAryGor1LrkMiYP/g4vT7mJZ0mWWxYWAROHUBYVNSxu2ij17tc01nSOk13XJtcZ1HSlxxOsHwVWqr5pLAcai6FlcJyIOCQNLWsFJYDAYekscdZsfO0A/qWLy3ywFgiz1l1IAizgOjMgDksjzBJYILhaYLgF5YVrPlzs7l165Y8vIawxRybMeBlsGyfVzXXrl0zQ4YMaZuDWrnymW0I7MiPX1i2BlkgZI3q1atXstbF5DvpAIjozIBpGc9WbNy4UR5K8VW+X1hWKpaYucPz/v37cJHQl7Bx8gEazbD6z2ov1hQt0y8sa+4sE9+ou2HqbtTJknS0sCSPWbnAdzFvHTNmjJk6dWpYXNSfhZF5HPiFZZshQlcOqDTLli3LQ5xkLvHhr5AsHWc51E8KK4XlQMAhqVfLwpGy3Kz76DK0g0yxkmrelKUbwxSOkwpeYelaOkLr2CcJwQFC/nr/UssI7wkkxMtrb0jXzQiaG7MvX76ytZz9hqsqmc8+akHcrB02bJhko0MIrbh88s50jVdY1LZ980tGzleuXAmbR6bCC4lX6yKP4cOHy/NiI0eOlHkgTRQr8x28wkIBHvzgRaK3b9+KrElOd7SpU8azZ8+MwLKlEp9E8AoLAbktz5sUFy9eFKGjzSUJBchz6NCh4WtwUYvzXZ5XWNQoj0vu2rVLJtMIm1QtR0FQJsDU0qzrTCR4haW1ypsU48aNE5+V7/1FV22jFtxqO5Zu9s938Dp0UOFwsGEta2SS+3ZLUitOqoK8WpYKqz2R/p8kJ8m7fQLPcZJlJmJZicP5TQWksBzAp7AcYHn1WZRLr8Qz8tww0DfbHeQJk+Kk6SimTJlixo8fL/HEkX9SDjwsPMOBV1gowjcTFi9eLN9MoMxfJ7sZ5OgwGmcNmIcPH5qqP6rkGIBdAhbK8QzXixcvwhcLouOfDolkiIz2anfv3jULFy4US9OeNsNliUZ7tyxeFuelgHXr1oly+UgPKCCzHzt2rLxpxnEUYD75FnqNV1gow5PMvB12586dvJuggkI5pjLMCLocLJRTYDy+3dVCOnRwqNEUVgrLgYBD0tSyUlgOBBySppblACv2OEsHhEw3GKWzlWLQMZzuXXTICkvndToXY//o0SPD9694BqrUAhX++PHj8AUt9GEDHJvqmUmvMpso4/I+p3iSz34B0ty7d08y1LkZe6wsy+WZyvwt8QoFmVXuadOmmevXr//0cmhW4YCVKdhMA3sfMDh//rx8LtNaU/itT46tAIAuiQ15bQXLZzc5tneDggsXLgT2nmPQ+sPe4rC65go5LYsbmNQEc70Nf28wT/95Kh8Rw6S1mWatjU5ykpaAzHyHgk9t7tmzx1RXV8t9Tgup8GYY1RNovG3PpmYcPV8Kxzz/UNG9QibnTNCjHxaKI39Wy4qTwf8pTTrOcqjtFFYKy4GAQ9LUshxg/QtlJxUeHReLhgAAAABJRU5ErkJggg==;" vertex="1" parent="1">
          <mxGeometry x="86.66" y="364.19" width="16.69" height="19.81" as="geometry" />
        </mxCell>
        <mxCell id="wqFsDlphDBnR6IoxysdR-44" value="" style="group" vertex="1" connectable="0" parent="1">
          <mxGeometry x="74" y="473" width="160" height="60.41" as="geometry" />
        </mxCell>
        <mxCell id="wqFsDlphDBnR6IoxysdR-21" value="" style="rounded=1;whiteSpace=wrap;html=1;arcSize=7;" vertex="1" parent="wqFsDlphDBnR6IoxysdR-44">
          <mxGeometry y="10" width="160" height="50.41" as="geometry" />
        </mxCell>
        <mxCell id="wqFsDlphDBnR6IoxysdR-23" value="Promtail" style="text;html=1;align=center;verticalAlign=middle;whiteSpace=wrap;rounded=0;fontStyle=1" vertex="1" parent="wqFsDlphDBnR6IoxysdR-44">
          <mxGeometry x="21.99666666666667" y="35.77175094894085" width="106.66666666666667" height="22.653361087302553" as="geometry" />
        </mxCell>
        <mxCell id="wqFsDlphDBnR6IoxysdR-43" value="" style="shape=image;verticalLabelPosition=bottom;labelBackgroundColor=default;verticalAlign=top;aspect=fixed;imageAspect=0;image=data:image/png,iVBORw0KGgoAAAANSUhEUgAAAG8AAABbCAYAAAB9LtvbAAABWmlDQ1BJQ0MgUHJvZmlsZQAAKJFjYGBiSSwoyGFhYGDIzSspCnJ3UoiIjFJgf8nAyiDPIMQgzaCSmFxc4BgQ4ANUwgCjUcG3awyMIPqyLsis4wtcjrJULuw/2MV5Xk733TJM9SiAKyW1OBlI/wFireSCohIGBkYNIDugvKQAxK4AskWKgI4CsntA7HQIewGInQRhbwGrCQlyBrJPANkCyRmJKUD2DSBbJwlJPB2JnZtTmgx1A8j1PKl5ocFAmg+IZRg8GAIYFBiMGEwYchkygGGDXa0JWK0zQz5DAUMlQxFDJkM6UHUJUKcjUKSAIYchFcj2ZMhjSGbQY9ABm2gAxKagMEYPO4RYylMGBuNcUDggxLIEGBh2f2NgENyKEFN/CPTGXAaGAwEFiUWJ8BBl/MZSnGZsBGFzb2dgYJ32///ncAYGdk0Ghr/X////vf3//7/AeGG+BdT7DQDYSWNfJwYHiQAAADhlWElmTU0AKgAAAAgAAYdpAAQAAAABAAAAGgAAAAAAAqACAAQAAAABAAAAb6ADAAQAAAABAAAAWwAAAACaiMc2AAAfp0lEQVR4Ae3dB5QmRREH8DkOA6gkBYxwSjArmAWVM+f0wAQqmMMz58B7mHPO+nwCYhaMgJkTzAEEIyhwSJKcVPIx1q9ua5id/fb2uz2425Xrd30z09Ohuv5V1dVhvl3QRmjWhnnJgXXmJdVriU4OrAVvHgvCWvDWgjePOTCPSV+refMYvHXXFO3Lli1rOLoLFy4cScKCBQsyvZzhepYoTVxnnWu27K0x8Irxl156aXPGGWc0BxxwQHPooYc2F198cQJ6xRVXNAWYq7h48eJm5513aTbffLPmute9bqAYSC7HOIG+pv23ICR4jczzgPOf//ynee9739t86Utfas4555zmkksuSY0CArIAVuS5B9j1r3/95glPeEKz5557NhtvvHEH8DUNuOwv8NZEuOTiS9o3v/nN7SabbNKuu+66GUMb83rta1+7dR8mtQ3QCFfGa13rWvl+o402at/xjne0Af6aIH3OtLlKmhe96CTffYUwcsHt3nNozTCccvIpzQ477tCceuqp3fhl/AsgO23rl6Gpl112WSa532yzzZqDDz642X677dN09tuvcrS1Qp/WSpvv11mNecUoTDR2FWMq3Th0+eWXd86I9BrjimGHLDmkueCCCxp1AO0mN7lJc//7378JrerqrLxAOOuss5of/vCHzXnnnZfv//3vfze//OUvm+222y6aWw6SfByhaku7RZu6vJvOQaq25tN1lcDDJMwXLrzwwnQ2MCvMW7PeeuulFvWZ2WcM56SYiemPeMQjmo985CPJ+IXrLEzNLca7Cu9///ubt7zlLdmO8bHGyL6GJXCyX6l0WZYw0er/pzCr3mBmSTcGcjbe+c53Nj/60Y9S0jfddNPmc5/7XHPTm9602WCDDVILK38xD+giAGOMa653vetlnSkQ7XKBKPCqzIYbbpiaI10ZgAgFrvs02TFMqheo//3vf9PcEibP/08Azgq8AoJb/7Of/ax5xjOekWYNE8Xjjz++uec979nc9773TU/yBje4Ab5OCqWx8mNqmVnPVb97oTQLIJWf0FR6P4+xVt082RNOOKF59atf3Vx00UXNbW5zm+ZNb3pTEw5Seq3VRjYwT/8ba5aLYcW4YijngaY99alP7YDr88CY9NOf/rR58pOfnCZVOdG8DjOrnhqDCoi6FiCe+1F61YWmEgJXkRCYNzLD97jHPZolS5Y0v/71r5t99923uf3tb9+88pWv7Mba6lOf7vl0PxZ4OtSX1GWXL2sOOuigZo899mjOPffcZJr3TNJ1rnOdHPOAQjuMbU95ylPSdHn+1Kc+1ey2227Nt771rQSygOiDNh0DgSM/psv/m9/8pjn99NOzbunen3322c1OO+3U/Pa3v+1ALvpZir333rt58Ytf3Fxw/gVZh3LzNgTxM4Yrll3RBmMyBuPar33ta625lvmYuZdovvbhD3+4/fGPf9ze7na3yzlagJl5Yrxp73Wve7Xh3uezct4F4FnW+zBvM9LxiU98oo0xNMsFw7OOGAfbEI42gGyPPfbY9uY3v3nW2aet7gPwNoSr1d7Tn/70NgSv1bf5GkjnjAFwQAuT1H75y19uMaxAAwLg9ttvvzY0qw1z2v7xj39s73SnOyVQoYEdw9wrV8AVuDe72c3aMMEz0hErMR14gKj6gBErL0kXcKQTjFiRaR/84Ae373nPe9pFixYlaCU466+/fvvEJz6xPf/882dsd65mGAs8wMVY1X73u99NBhUDCrjvfOc7bYxj2UdAy/uPf/yjvcMd7tAxUt5iNsbSoBiT2t1337096sijEviZmKSNnXfeub3hDW+YQgBA9dJCdVaUBtBddtkltUu5v/3tb+0tb3nLBBQd8gD88Y9/fBvectuGAuon+udLGBu8mCSn2dPpYlqsLbYxcZ4EXHUegCeddFIbk+jUQOVo3S1ucYv2jW98Y7t06dL2nLPPySUu2jpWCL5aEvvXv/6VpvvWt751ClNpWplFoBCKmNB3ZhE9//znP9ttttkmASx6whNuH/rQh6YGon1sWsYi+OrNNBZ4MQFvX/CCF0zqNFP585//vPVOpwu0JDeYbCzBMCA98pGPbLfaaqs2nJV8jrlXmmCMUo45nlR+mj7LowwNAWI4K+0vfvGLFohAoHmu4QG3hE2+0iZl0fOXv/ylve1tb5uaCUDR+G08lRct8yWMBR4JftSjHtVpnA5zTmJ5K5k5ZLxnTMCMSy+5NDUAo2P60DFIHrGYOw7DKn+VcQ0Pso310XafffZpY3rQfvzjH29jqpB1V351171x+Xe/+12OyUyrvhgnOTpnnnlm0jMOLXMhz1jgYTrwdJTpY6Ziwptg9LWmGNTvmDTBte7r/fC50l0BYxyarlyWndBw90DhfBjf6p168n5wlTfmoG2sp6a26pdxNNZKu/zKzvUw1jwvwGq23nrrblE3xpbmk5/8ZBNThpxwmydFRzN6576CZ8G17ofv8jmKVLlgeCYF3F1avfOiqyuqXrDO8nrDicqlOHt+2c7E2ma1WVflQwBz6c5+oL4J2rQ+O69CMGXGYJw54/QzWi49T1M0vpi3mSLQzBq/SmNmrHSQgYZULLNYz3UdFJnVo7r0xTyPx1vWRF94pEn/rGpe/YVI9liBqTGecFSYTtFYEYvQ7ec///kEsJjsurLB2MVl50meftrpeT3ttNNyHLrwwouuMqZyZABnrgo4MRbF2/vc5z6dAK4s7Wsq/1jgFSi064Mf/GACCDjaVwCa6/HmVgY4gMVyVnqA3/jGN9oHPehBbSwgp2dqTnarW92qvdvd7pZtHnHEEe0pp5ySY9pstcOKSiyiJ3BoN3ZzWkwfli5dmhisDP1rCrRqdyzwZMawMmcf+9jHcoJb2seMkmbTBk7GqFAC4CofLfvJT36SXp/5IkZiKE1wVae0iuZuALVacvLJJ2cd5Sz1aRu2Xe1yZp72tKclcOhWr1WWLbfcMleEaorwfwdegVaMwLwyn5hNemM/L9326TovXT20zVzL6gpAagztg+e+GOxaoBaQQDTWAqS0vWicDjxzUkKiLhFw5p6/+tWv0lpU+fm01jmW5lXHStJf+9rXJuPDg0tN4cj89a9/7eZ28g8D8DD6s5/9bDfelIYB0DokhgLURLui8ajmY/IXmPI95jGPyTldOUujBKdo/+pXv5oCRwAIHAfF6pAyFTPvPFqonhE8HQOajomk3WBfTDDmfWG/L3QrE6MYCEgMfv3rX5/gACFc8s7xAZR5JO01/+K0cFZo6Ec/+tFc3cHsAhHzRW1beDYpL8EaJTToJlycK+ArSws/85nPTNa6CSCHdczVZ/ObDpi6Zzp0mGf2/e9/vz3wwANbDsm3v/3t9oUvfGEysZhgzLBmOCWYQE8wg8bFsYj06jCOxgKQ9jzpSU9KFx242kzwJ8p6Fr0z+X7Na16TTNd2mVBa+4AHPCAXoNFQbVZdVQdw47xntokGdViUtsxWefpl+vVM6dscSZgEng5iVGygtne9611zHoTBfVPGjDFxIibEoaEcx4b9UZegvtgY7ZhWpu/GN75x+4Mf/KBbmE7QhpX0nr03XSEoccQiTaz2aR/NBWyBUHXVM1rc//nPf+4W15W1wvL3v/99svaF4CpfZZSbq2EBQq0qxDUXF0LLmuc+97l5BiQY36WHpOd9dCR31eW3QuEMSywMT149iRqtjljVcLzv4Q9/eB5FCGnPYwo3utGNmjCPTTgeeZBIvqo3iej9J917wb12Yw2yCY1tfv/73+cuOtocdHIsI7ahMr+8FZQJocmd+x122KEJc5z1WI3ZKXbdY6M4TwEEYE0sWueZUGnKiNV+1TdnrtGxlGim7cQTT8y5Fe2iITWuMTGeSWulMVe2eyxajwrqZeqYWvWpQ7Sq8Yc//CHfkW75xHECLZBXudreQRNajIfooZ3y0PiqW7l6tiaLhgAk6eEkeS4HyXhuPDRpN/YqN1dDOizVSaZHRwooHTGmLYpd6GF89KMfnWADfVTAMHM5Jq4AB57tIbsR2lyVoN04VNR5kNrYfPPN26OPPjrrTnM3ogm7/KH5KYiALyGtawkoYbBAkEclVpHWVennisoyHzmxdjWAk2KRJL7iFa/I7RaeXz/agqFxJc2jJua0w3yQAAANUwjGcccdd5VJM4fqgQ98YAcEmt/2trflXmJp6bDzwOChGsfRRANdi0ZCoP/ANK7bOGZB5mJYfm7TkBJDRICR5jyAzDHA0bmQ5rT7fTvvvdCNBRMr+P086vrmN7+Zh14rn/FlVH39citzH4LRPOQhD2lify53BMJkNuH+N2FBut2CYX0bbrBhE3PNJpbjuh2RyoPm2NzN8RjNIQBNrALl2U/j41wL6xZjQ7ISDIN2SF836Nf7PuGj0vrvCQJG2jISqm5OQNU9Kf8sH0I70hn6wAc+kEJCqEJLGmdGffNQ7U6qPgQtNl6bl770pfm+3iVYcaTxjDPPSEdK3cqHpnYnsyvvXLnmfl510lXABPeVviJiRwIZDCK1MeZlUQIhX5wVyb20FdW3Mu8wmPaFQ5S0olu7Ya6zvZG0RQPK1TvXdRYsB2rhuguzLjSoyzvaWHxZGdpWR97uuHt1BtEVKq2e6zpder2vq04XcNIcOe8zrvLN9qp+mhzjVVaBLmlOTOuHd8PQpx0tFQBYQVn11DBS6XPteiXFVyNlxdRiFsZclaHqpXXqdq20q7KduVbX1Q4e4Eqbw2NNx8iYeFWEqvuyS5ebNs/ixhtdMz53ngRedL2TWBLM5JU0e644DvMxkdkSSwu+973vNZcvi8+yRninswETPRyjCy+6sDPH4fY3W2y5RdI6mzrnU5l1gCNgxHrrr5fLVRiAKbGi38TJ5yZWGibFs885O9/TKAAr2w8x78txyLJYvQOg5Sz5Zxv6glT3hxxySDcdQTdhsfym3Wq73560GtNch7Heo1ckhHM2BPE5qXW1c9BffTB5DWbkhDU6Munq4Gqdj4wOTw4x7w+Q8si7hWNlgwl5vM6WkrZmEwKwLKtu0Y7Arrvu2k2wLcPtscceuQid/ZqmHe+qrrpWmkm8fqPXNU7N5e7KbOi9ust0k/QgPhdp733ve+e3355JHQl33w+8u1gpyclxrHB0i8tdnhBWUmvh2pHBWLnPOsy/fJr8ute9Lj977vLP8sY36RajtSWYSL/oRS/K+2DcSK3hQcY2V3Pcscd1i+f6qY/eff3rX+8cHnXEPuLc/Zo2iO6kMIjPZbBYCcktF0tGNC+4MSmSSO/ufve7d/tofSlTp0gzXv7yl6cElzTbEHXEjuasbOjT6uCSpTGarW5LWT5ssZTV16ZhG/YmbezWVldda3FaPfqrTn1/+9vfPnLLa1jvmng2LkwKmHreuee1Bx14UJ4zsVJ/5zvfud1+++3bO97xjsksZhB48c15G58Od6asf8K5GO0IuTMnmGHNELOZXOuexeS6FujD56oLoe6tq/o8y1pmMdmJZ7vww1B1uvrtF2dnAMQs6ofyontpAKs6CcfIhWnLwVFf0Yln1U7de1fv+3ltdFdeV6HeD2mf6XkKeFURCcYki792B0i6w6r18aJOGmMOO+ywOMnVO1c50TH10ORwfPKLngJOOdswjtsdc/QxKdX9TiqjbD9iSOVBz4477piL3JhMGIAYa5yp6cMOZ7kJhhE0Aqccegq0EkbgEUofnjhp5qihby2GQZ1FD9rscBj/HbWw8fzsZz87Dzf5OAffqi/9fvTT3KtvZcMU8GhPnzj3JU0YG+NV7p0BQUd9RInwfr4irNJ8FaRDJF65An6LLbZoP/ShD6WprryuVd5V2yITTFBs0zB12haBd5e73KWzAEMGVF3q8PWtXQ6gKWu7ysGk+N2zjLGQ3sbn2m18w56CW/0e1ulZvWglnEceeWQ6NsyxU3VFH1OMZuBmv0KIss4JYaq+SnO/smEkeEU0AtMUTjQm3bEBROk8JmBG/BJRtz1UBFXnXJVjfniGtA7DSTsQlQdIOBp5ftJHmb7rO/WUU3PDVXvvfve78xs6nrDyxXzCsO2226a5xMRRDMg+BFdK65RBu3ZtzBZjla2oTBej76NCvec927jVJ9pcfEGj/j3vec/r9i+rjHOrtsYcuDrmmGOyXTxa2TAFPA30QzbYkxRaZBxELEJFn1YNzUPVUQS70tDnPOc5ybgqq4PuSStnxuavMZY2Ma3OumC0PPKWiZPfd+4km4mvdqrdulb6G97whm6jWV3qthvv/TCUEFTZylPPNbbLBzz7oGgr+vpjpxPgxv0qC6TDDz88zaode/11HNIQVe2U9RvSNXyeAt4wg2eVItQO+F577ZXMLEkjYYsXL27PPmu5bZevI6JXmXSRBr71rW/NsRMAylccOg0lvSXR3msXyLTYsQ0aV06A+ocBLQ4eKVP10F6btjRgFK0YLL0fpYnZP8I8IdDq2HvvvSd547xVQKKfKY0vqpIG4zVHDdjFPzTVGMvKsATV/rAvw+exwFMZ4HQYwzVYDHcCq+x6dWg6JkoXjZ3MBo9xURyxoFk6Ux2ua5lWz0w1AOyC+zgSPdXJYuqwc569c7pa+RIGjpYdcoI0ilZpgKsrrThg/wNSQ0xzStMJDq3ad599p4BXguKqfyzI/e53v+wzWqqPdWXOndjzxVXSNNUgTOneWOAxlTSuDxzTw3MzuFdngDJdw8WMYrhnUsZ0OViLcJ8n+2ZdR51HcRLbkXRTlPjtlPZPf/pTixbllC/Q3Gt7VECPjyYJWd9h4lhwvpi9YVBGVK++cWqYOOU5WbFGm8dDmD9OD80ZzoWBJhLKEnRAVSxB8p6QelY/D1e/xJnCjOBhCnUmPYhBJOBoASm8+KKL06mpzuqwOAyVLl8fwMqrHdrErHBaDORLl56Q05QCaVTZqrfqGbarjOinQjg8peH6ABCLCExfP7Agyqgz1mO7Q076j/nAMnfFA0wfAldmU94CRr4qL02emmt6Ro/xrw4BXyXgkUyfXqkcARrEBB9uMBu0wAA7DH2mYsSaCgUeemgMrXYyrPoDAF8rDelVjjBZtaERowDqpxVI+FNAuQKwgOrnL+C8l48pRUdfsGfi2Yyax4s0l0NcEbhkyZLOdOn0KPCKCEyYzqTNRNxV8V77fWCcI2XuAYJpQOS1orGfj/a9613vyqECo/uMH957rx6xtKjuS/uGdfTLECZeuPaT3glnaKb+T9rPC6KmhKggF2qjse5drGjkfTS2fNH6yleZroz8AWC3yNsVXs036ECPKMR501wcD48z07z3+2XhCebPPcqT+WM5N+aGHkcucOeLif/kD6ZnuQAr8weI3e+wBZDd4nmVK5qKrphGZR35PvhZ6ZV/1LU7wzLqpbSQzibWDfM1ggDml/7233//POaO2GHAEJ3BFL+257TW7rvvPsy2Wp4xAT3ottnsXzhHuasR3mYyiZCF+Z+0y4A4/bSBHMPDciGdhmL14w1eOdroOKJDUYK67Yk6UhjjWVdDR1OUjW8WcyfHUcmYRoy/ixGdW2Fg/uJ7hBwnmASmxsC7KFx8jkyZpbpSfWWOOuqoNE/mVNYe47c3cyXEGMlEyS+f/OKoUO9GXbNsmJelS5emt2oaw4ES1N2np/9sGDDdYKr0RZ/ipxw7R6HaUj86rfRYhNAHJrCismUq3XN+3ve+92U9HCD+QEUeK8+0FsXLpAaSnTmWZnhyoNmXWZ/+9KfbL37xi7n4UfS79gPJmzFwz33axVMDnIaMGTwuE+A+CDpscZZrLr98OoxZPFaLypbTOAN9RrkfBvUKRXzl93UtZlh64nBgrMhbO+LwI7p6lasyroDbKba7zPOK+RyFZz7zmV0fqq0qiwYrQ/oa2tIJrz6pQx/RQMDRVbwY9gVf/JCQz8wIND72wSNEeMWTxSf9QVtNZ4qefr1jgUdbeJ3mWiWxGnJv3lNfxSLch/8cAu+qg8DWUQQinJRaeeCm+5hjug5juLa9J0A+UDEnBFItAPeFQ5uEhtZXZ+tqMu2nJGuuijZlzS8d5S+Q5RcrSPd9A4D0QwSY/ojoWBIOHODkResoBw543tEsW2LK9sFzX3zyDn0ioZmOR2OBp1EdstLg+wUAFPEY5qiAT4S54n7BgWRrmHSJJAhwRaB3ypOu+OXZkRNlzCtG6Lhf+zNFUaaYV224SqMZ6NFh2o+Z6AZcnBDoNA5N8lkQN58kIH3wqlyl+bVDGjEETptM7jhWpOpiSq346McQvOJL9QePLFQcf9zxHY0lVK5jgSdjNY7QV73qVSnBOlPapHMiYKtxoFnHBGocRkqN02HvywTZjWeWVhS0WYsE2hNLOrVBK1zVS5tEuw00wjJcfJM3CTg0WhmhUZjZD9VP45a1U+M6U98XWO2I+mtcUqYfhs/5LrLU8iGaWKdR4KmXcOmje/22wqPOvkVQ59jg9YljQl/ykpd0WqCR0kSAihr1yRhtpTkWZQ3EDggxXcBTrsxWv/7hvTVIZapumm357LGPfWx+Ls1sM+narDwYgEGW12gZQAmOe84T02qjdcjoOAPahiedi8eW65jhMrUYqv7qK0tgzB/WMaTfc+YBYIBg7LPkNwSv6kUr3mhLP/x4EeCG7cwKPBXZXbcH5/gBhmhMdK9TBlrAVaMadn/wQQcnk2cDno7ooFUSP0sMVIKhXrsaBIoGylMgukcX4IBu7600Ls3ygNOWp5jCqkOb6ipLUXSrk8b70YMhUwdVdo+ZLwBkxu38jwKvhKOAo91+Yar411UWNzPO86KBKSE6kF/hhElsFi9e3HzlK1/JCW10qAkHJn8QPD7yb3xOFbqd5aOt5ZPXhTOuC0xprxKiAzl/DBPWLNpyUX7KjBbpG260YRObq/kXT2KMys+p0aPd0Jg84RbS3uyzzz7Nllts2fioxLuiq9rwHGa6o7nySAiw81yoNoWiJx9m+C/biUkmfiiXp8cHZdQbgpjzanPrRYsW5V9scf4VG/vfUyg6K/CqzTBTTZiuXLUIbzAZESam+/DDhHgCuyyCaAGROiPUNR+G/0UWnc2OR5kq7zlmh1mPuoCjHcfcw8Rkh+O3sPNrIcwIDclv1eM3QvNArvzqyKtP8pdjka1L8429g8aCfCJBEIoG98B0/NB38DOFfp8dgQztm1JEO/gXP7SQRw7DK+/+BkTSEZ3MhYaJkrMCDyEVwrzkbZiXSpp0rbwaF4pxxXTpYfomlakHAAklGO61V4youvM6QVKYxvzp/ec///nNSSee1Cy7YlmuepRQTSoT9fnJx34o64FOQMnvWvRrn0B4tjLi20B/OyK8x8yrLvkL7K7u6L500WoLAEcF51zDY++sSuUpuuvZdVbg9SsY957KxwwqTYKOIQaD4rxK/u2FxWF+RwWdjUNKHUMwLsaDFS4hqV/d22y7TVel9hIAMjQZry6PG+ViHjkJLOnqpGnoUZfo2ZqkQ7yPe9zj0jRrQx3DUBaEuYyzoAn8MI9nv0YxnSJMyR+NrZYQnc55m6UiDgcHgjMQTOmcg2BIOgauwYAu3b0BXOSy+yEBk3Z1DkOAm+ne9WPmm5p9WDzL2BC1kGAuxgFyz+Msmou2ostE3W/X1Kb0KLrMJU3QLc3xJjlEAUYX9Rk/7DtymkwrZgokbLWEPlMdKcAQYOgEAPsdqftiUuXDPCs65l9V3xTio8990CrfKIZOKTuRoIzlN79uaAvJPJPHx/MrYUN30e4KZFMjQmW1BVgVgepIoYNVfYGtftZVP03K/TDRdMLZp3mV/vhhNDrrEH+1Ms2h8UwI5k6pi6kKYtMMec+c+TM4MXdbbnZ9zboCEzilwlVIiGlPw4OOoxhpLvtVMaEhaGlaA8TmYQ97WLcTw7Qa42IlZ8oPGPTrcB/gZZL6nvWsZzXx85TpwAzz1fMaAy+ku4ldgCZ+Er8JTWriOAW/sujqOuGG1xVS27zsZS+b5H1hmI5e3QGtxuxDDzs0/w6SrS5p/YAWgcCJAsFDH8GTf1gmM/X+Cw3OvOoiBDxZnu90YbU5LEMCdMo36rw10lmd7+fTafkKJJ2re+ni6gja4flqGyCjgjze6UuBhN4wnelcVdqospVW/VEuTPQKtU6ZNQYeYEpKeVcIL+KrM/IIxZiSZGn9e89XZ9C+X7bwt/hqA7ffXtFefQKg4BngrgCp9H7Z/n3VYxEi1jNzrtd/P7xfY+DpTAVEjwo6XmGYZ/hc+a6u61577dXET2MlAMYmwkObXAsgbfcBq/dolYewuioDoFg3zTri+GOmFfj+9h+r1OfRyH5FRWvDGBywB8fb5RGKwdhuOhOg5LN09zzKAGySB+3ZO9MPR+0t0puSOLe6e/zdI56scovj9LlF/NDSGamC+NowAwdCI/LvIFmEx+DQngQLgBbiffbmh8vr2woL4N6FtnSxylgY93f+TB9CMzPapfHRp28Wli5dmovtc2qeNwN/5vRr4DmGbhOVBgKHFtE0W1N+ZNzcztdNTpDvtutuORHvg0fzAGrHgsapsx8BSduk1f1MTFmreTNxaOI9hpp025yNpbBcJbLXt+eee05aWZEvdi5yRaa0zVUEuD1GJ8KBJBSAE8106aOOUlSeuq6xed7IAXieJIaZS+clwMh5mEXvYGjnLduRsEZp4TrAyXRX+e1wxOfXzdZbbb3KCwxXunzzhHFzgUxbYXF8I0nhSRZwdY3DVbmTAcTQuAQtTGye5XQuc7NNN1s+b+z93tls+rVW82bBNSBVCDOZ4NSzd2I4JU38lZfUwPg2PX+d0Ob0xptsnCep5QHsqoS14M2SewUgcwiEei5NVK37fujnGb7r5xv3fi1443JqDuZbNb2dgx26JpG0Frx5jPb/AN6ooU8DE6F5AAAAAElFTkSuQmCC;" vertex="1" parent="wqFsDlphDBnR6IoxysdR-44">
          <mxGeometry x="62.86" y="15.319999999999999" width="24.95" height="20.45" as="geometry" />
        </mxCell>
        <mxCell id="wqFsDlphDBnR6IoxysdR-50" value="" style="group" vertex="1" connectable="0" parent="1">
          <mxGeometry x="70" y="314" width="50" height="50.000000000000014" as="geometry" />
        </mxCell>
        <mxCell id="wqFsDlphDBnR6IoxysdR-31" value="" style="rounded=1;whiteSpace=wrap;html=1;arcSize=12;" vertex="1" parent="wqFsDlphDBnR6IoxysdR-50">
          <mxGeometry y="1.4210854715202004e-14" width="50" height="50" as="geometry" />
        </mxCell>
        <mxCell id="wqFsDlphDBnR6IoxysdR-37" value="" style="shape=image;verticalLabelPosition=bottom;labelBackgroundColor=default;verticalAlign=top;aspect=fixed;imageAspect=0;image=https://cdn4.iconfinder.com/data/icons/logos-and-brands/512/97_Docker_logo_logos-512.png;" vertex="1" parent="wqFsDlphDBnR6IoxysdR-50">
          <mxGeometry x="6.830000000000041" width="36.35" height="36.35" as="geometry" />
        </mxCell>
        <mxCell id="wqFsDlphDBnR6IoxysdR-49" value="&lt;span style=&quot;color: rgb(0, 0, 0); font-family: Helvetica; font-size: 8px; font-style: normal; font-variant-ligatures: normal; font-variant-caps: normal; font-weight: 700; letter-spacing: normal; orphans: 2; text-indent: 0px; text-transform: none; widows: 2; word-spacing: 0px; -webkit-text-stroke-width: 0px; white-space: normal; text-decoration-thickness: initial; text-decoration-style: initial; text-decoration-color: initial; float: none; display: inline !important;&quot;&gt;app&lt;/span&gt;" style="text;whiteSpace=wrap;html=1;align=center;" vertex="1" parent="wqFsDlphDBnR6IoxysdR-50">
          <mxGeometry x="9.180000000000007" y="23.000000000000014" width="30" height="20" as="geometry" />
        </mxCell>
        <UserObject label="/var/lib/docker/containers/&amp;lt;con-id&amp;gt;/&amp;lt;con-id&amp;gt;-&lt;b&gt;json.log&lt;/b&gt;" link="/var/lib/docker/containers/&amp;lt;container-id&amp;gt;/&amp;lt;container-id&amp;gt;-json.log" id="wqFsDlphDBnR6IoxysdR-59">
          <mxCell style="text;whiteSpace=wrap;html=1;fontSize=7;" vertex="1" parent="1">
            <mxGeometry x="63.67" y="434.19" width="180" height="19.81" as="geometry" />
          </mxCell>
        </UserObject>
        <mxCell id="wqFsDlphDBnR6IoxysdR-61" value="" style="shape=image;verticalLabelPosition=bottom;labelBackgroundColor=default;verticalAlign=top;aspect=fixed;imageAspect=0;image=data:image/png,iVBORw0KGgoAAAANSUhEUgAAAEsAAABZCAYAAAB2UNl6AAABWmlDQ1BJQ0MgUHJvZmlsZQAAKJFjYGBiSSwoyGFhYGDIzSspCnJ3UoiIjFJgf8nAyiDPIMQgzaCSmFxc4BgQ4ANUwgCjUcG3awyMIPqyLsis4wtcjrJULuw/2MV5Xk733TJM9SiAKyW1OBlI/wFireSCohIGBkYNIDugvKQAxK4AskWKgI4CsntA7HQIewGInQRhbwGrCQlyBrJPANkCyRmJKUD2DSBbJwlJPB2JnZtTmgx1A8j1PKl5ocFAmg+IZRg8GAIYFBiMGEwYchkygGGDXa0JWK0zQz5DAUMlQxFDJkM6UHUJUKcjUKSAIYchFcj2ZMhjSGbQY9ABm2gAxKagMEYPO4RYylMGBuNcUDggxLIEGBh2f2NgENyKEFN/CPTGXAaGAwEFiUWJ8BBl/MZSnGZsBGFzb2dgYJ32///ncAYGdk0Ghr/X////vf3//7/AeGG+BdT7DQDYSWNfJwYHiQAAADhlWElmTU0AKgAAAAgAAYdpAAQAAAABAAAAGgAAAAAAAqACAAQAAAABAAAAS6ADAAQAAAABAAAAWQAAAAC944FjAAAJcElEQVR4Ae2cSYxNSxiAq1ubacJrY4IFYSEsRGLxemMKYg6JrWGnH8kTEexEYlqIuZGYxQoLFrSIhVgQK4kEibcQU2LsQWtTn1ff3/2fd0jfe0/dW+fq2+9U59xzuk6dqv//6q+/hjOUBTaYNMQiUB4rVZpICKSwHAwhhZXCciDgkDS1LAdYFQ5pvSRtbW01ZWVlhk6YPVuxgnT89P3tRaoMWn4uWYoOC8F+/PhhysvbjDpotdIXgZeOkMrLyk1g/zT8CkzjO9oXHRa119TYZPbt32cOHTpkvn371pFcicVVVFSYFStWmNWrV5vJkydLObGB2YRFDe/evQtmzZoV9O/fP+jZs2dgLYxqTnyzkKS87t27B/369QtGjRoV3L9/P7BuIbCWLlsuEPiORIMKw76+vj6YN2+egEJoFNCtW7dugbW6xOD16NEjoAzK5bh3794iy+fPn0NguUAk3gzxT5h+Y2OjWbVqlbl9+7Y0PXX0+K4BAwaYQYMGhY4/qTaIC3jz5o35+PGjofwHDx6Y169fm9GjR0uHk6vcxGEB49OnT6ampsbU1dWZlpaW0MEjPNv8+fPNjh072hojzv4//5tL/vjnbb4AwlfdvHlTjr98+WKsZUke2uFkyzBRWPR0DfUNZvOWzebSpUsG4QhRwYBlm4SpqqoKhxHE+Q62iQkg6yd/siLiCexzlZvYoJRabGhsA3X27FkBhUC9evUyM2fOlD1pNOQSVNPluyd/raTv37+LdWtenItTvldYwGBDmIaGBrNt2zZz7tw58VHE9enTR5rc1q1bDTVM0BpVgeMIrUq67jVvlVPLJh89ly1Pr7AoEIcOqN27d5tjx46Z5uZmEaRv375mzpw55siRI6ayslJkiiNgNuGLfc6rz6KmcOY466NHj4ozpydkW7BggcADGgFQbNo0iq14PuV5sywB1fTJHDx4MLQoQNDcli9fbk6cOGEUFPHaFKJ+Kx8FinlNQbBQmG6ePc2t9mitNL+mpiaxGkAtWbLE1NbWCjTSiUW1TwbxY5JHMTUuoKyCmqEoant5hgQHDhwwO3fulGMsh16Ppnfy5EkRDwuyI+gCRP39lxZkWVgJ1nH48GEBhUUxMQbU0qVLpempiqQt9VCQZWEtWNT27dvDXo8B5owZMyTezsFCPsAifSk59FD49gMnWFH/gkWdPn06BMWQgXEUA06anp3ZSxFRiyplUCjj1AxVcUBdvXrVbNq0SSyK/4Eze/Zs6QmZGJc6mHZj+mnnBAvLoimdOXPGrFmzRpw5oLTpMeAcPHhwOCz4qaQu8I8TLECdOnVKLIrBJ70goBYtWmT2798fgsICo022C3ASFXL6LJRGeXo5fBRNj16PQK9nVz3Fb40YMaJtDJUDlFhn0CowGUrQXNmicLW5SyGd6CcrLBRgw4JYOVAfhYWh6KRJk8yWzVsMvR6LanGUJK+9e/cKfAU+ceLE0ocFlK9fv5rLly8LKFY7AaKDSybMNX/VyP9A5VzUQjoyiufPn5sPHz6Ei24DBw40c+fODZPGAR4mLvJBVstCFlYS169fL00PSAwR2AhPnjyRY21GgAJwthCFQa9J3sVYUs4mU9xzWWEBh94OS9AAEOLxYYCJDhE4l8uy7A0Dw4a/W7t2rVm5cqWMz8gfkFGYWmZn2WeFpUIqBJZaGHgyQc5XMfKiMzh+/LiZMGGC5NeZASkD9rFgkRAlsbLp06eLswcawVVRrJG89DprS5JPKfzEhoUyUX+E36I5orhLiILiOttwLa7SABYbFpaAryGor1LrkMiYP/g4vT7mJZ0mWWxYWAROHUBYVNSxu2ij17tc01nSOk13XJtcZ1HSlxxOsHwVWqr5pLAcai6FlcJyIOCQNLWsFJYDAYekscdZsfO0A/qWLy3ywFgiz1l1IAizgOjMgDksjzBJYILhaYLgF5YVrPlzs7l165Y8vIawxRybMeBlsGyfVzXXrl0zQ4YMaZuDWrnymW0I7MiPX1i2BlkgZI3q1atXstbF5DvpAIjozIBpGc9WbNy4UR5K8VW+X1hWKpaYucPz/v37cJHQl7Bx8gEazbD6z2ov1hQt0y8sa+4sE9+ou2HqbtTJknS0sCSPWbnAdzFvHTNmjJk6dWpYXNSfhZF5HPiFZZshQlcOqDTLli3LQ5xkLvHhr5AsHWc51E8KK4XlQMAhqVfLwpGy3Kz76DK0g0yxkmrelKUbwxSOkwpeYelaOkLr2CcJwQFC/nr/UssI7wkkxMtrb0jXzQiaG7MvX76ytZz9hqsqmc8+akHcrB02bJhko0MIrbh88s50jVdY1LZ980tGzleuXAmbR6bCC4lX6yKP4cOHy/NiI0eOlHkgTRQr8x28wkIBHvzgRaK3b9+KrElOd7SpU8azZ8+MwLKlEp9E8AoLAbktz5sUFy9eFKGjzSUJBchz6NCh4WtwUYvzXZ5XWNQoj0vu2rVLJtMIm1QtR0FQJsDU0qzrTCR4haW1ypsU48aNE5+V7/1FV22jFtxqO5Zu9s938Dp0UOFwsGEta2SS+3ZLUitOqoK8WpYKqz2R/p8kJ8m7fQLPcZJlJmJZicP5TQWksBzAp7AcYHn1WZRLr8Qz8tww0DfbHeQJk+Kk6SimTJlixo8fL/HEkX9SDjwsPMOBV1gowjcTFi9eLN9MoMxfJ7sZ5OgwGmcNmIcPH5qqP6rkGIBdAhbK8QzXixcvwhcLouOfDolkiIz2anfv3jULFy4US9OeNsNliUZ7tyxeFuelgHXr1oly+UgPKCCzHzt2rLxpxnEUYD75FnqNV1gow5PMvB12586dvJuggkI5pjLMCLocLJRTYDy+3dVCOnRwqNEUVgrLgYBD0tSyUlgOBBySppblACv2OEsHhEw3GKWzlWLQMZzuXXTICkvndToXY//o0SPD9694BqrUAhX++PHj8AUt9GEDHJvqmUmvMpso4/I+p3iSz34B0ty7d08y1LkZe6wsy+WZyvwt8QoFmVXuadOmmevXr//0cmhW4YCVKdhMA3sfMDh//rx8LtNaU/itT46tAIAuiQ15bQXLZzc5tneDggsXLgT2nmPQ+sPe4rC65go5LYsbmNQEc70Nf28wT/95Kh8Rw6S1mWatjU5ykpaAzHyHgk9t7tmzx1RXV8t9Tgup8GYY1RNovG3PpmYcPV8Kxzz/UNG9QibnTNCjHxaKI39Wy4qTwf8pTTrOcqjtFFYKy4GAQ9LUshxg/QtlJxUeHReLhgAAAABJRU5ErkJggg==;" vertex="1" parent="1">
          <mxGeometry x="145.66" y="364.19" width="16.69" height="19.81" as="geometry" />
        </mxCell>
        <mxCell id="wqFsDlphDBnR6IoxysdR-62" value="" style="shape=image;verticalLabelPosition=bottom;labelBackgroundColor=default;verticalAlign=top;aspect=fixed;imageAspect=0;image=data:image/png,iVBORw0KGgoAAAANSUhEUgAAAEsAAABZCAYAAAB2UNl6AAABWmlDQ1BJQ0MgUHJvZmlsZQAAKJFjYGBiSSwoyGFhYGDIzSspCnJ3UoiIjFJgf8nAyiDPIMQgzaCSmFxc4BgQ4ANUwgCjUcG3awyMIPqyLsis4wtcjrJULuw/2MV5Xk733TJM9SiAKyW1OBlI/wFireSCohIGBkYNIDugvKQAxK4AskWKgI4CsntA7HQIewGInQRhbwGrCQlyBrJPANkCyRmJKUD2DSBbJwlJPB2JnZtTmgx1A8j1PKl5ocFAmg+IZRg8GAIYFBiMGEwYchkygGGDXa0JWK0zQz5DAUMlQxFDJkM6UHUJUKcjUKSAIYchFcj2ZMhjSGbQY9ABm2gAxKagMEYPO4RYylMGBuNcUDggxLIEGBh2f2NgENyKEFN/CPTGXAaGAwEFiUWJ8BBl/MZSnGZsBGFzb2dgYJ32///ncAYGdk0Ghr/X////vf3//7/AeGG+BdT7DQDYSWNfJwYHiQAAADhlWElmTU0AKgAAAAgAAYdpAAQAAAABAAAAGgAAAAAAAqACAAQAAAABAAAAS6ADAAQAAAABAAAAWQAAAAC944FjAAAJcElEQVR4Ae2cSYxNSxiAq1ubacJrY4IFYSEsRGLxemMKYg6JrWGnH8kTEexEYlqIuZGYxQoLFrSIhVgQK4kEibcQU2LsQWtTn1ff3/2fd0jfe0/dW+fq2+9U59xzuk6dqv//6q+/hjOUBTaYNMQiUB4rVZpICKSwHAwhhZXCciDgkDS1LAdYFQ5pvSRtbW01ZWVlhk6YPVuxgnT89P3tRaoMWn4uWYoOC8F+/PhhysvbjDpotdIXgZeOkMrLyk1g/zT8CkzjO9oXHRa119TYZPbt32cOHTpkvn371pFcicVVVFSYFStWmNWrV5vJkydLObGB2YRFDe/evQtmzZoV9O/fP+jZs2dgLYxqTnyzkKS87t27B/369QtGjRoV3L9/P7BuIbCWLlsuEPiORIMKw76+vj6YN2+egEJoFNCtW7dugbW6xOD16NEjoAzK5bh3794iy+fPn0NguUAk3gzxT5h+Y2OjWbVqlbl9+7Y0PXX0+K4BAwaYQYMGhY4/qTaIC3jz5o35+PGjofwHDx6Y169fm9GjR0uHk6vcxGEB49OnT6ampsbU1dWZlpaW0MEjPNv8+fPNjh072hojzv4//5tL/vjnbb4AwlfdvHlTjr98+WKsZUke2uFkyzBRWPR0DfUNZvOWzebSpUsG4QhRwYBlm4SpqqoKhxHE+Q62iQkg6yd/siLiCexzlZvYoJRabGhsA3X27FkBhUC9evUyM2fOlD1pNOQSVNPluyd/raTv37+LdWtenItTvldYwGBDmIaGBrNt2zZz7tw58VHE9enTR5rc1q1bDTVM0BpVgeMIrUq67jVvlVPLJh89ly1Pr7AoEIcOqN27d5tjx46Z5uZmEaRv375mzpw55siRI6ayslJkiiNgNuGLfc6rz6KmcOY466NHj4ozpydkW7BggcADGgFQbNo0iq14PuV5sywB1fTJHDx4MLQoQNDcli9fbk6cOGEUFPHaFKJ+Kx8FinlNQbBQmG6ePc2t9mitNL+mpiaxGkAtWbLE1NbWCjTSiUW1TwbxY5JHMTUuoKyCmqEoant5hgQHDhwwO3fulGMsh16Ppnfy5EkRDwuyI+gCRP39lxZkWVgJ1nH48GEBhUUxMQbU0qVLpempiqQt9VCQZWEtWNT27dvDXo8B5owZMyTezsFCPsAifSk59FD49gMnWFH/gkWdPn06BMWQgXEUA06anp3ZSxFRiyplUCjj1AxVcUBdvXrVbNq0SSyK/4Eze/Zs6QmZGJc6mHZj+mnnBAvLoimdOXPGrFmzRpw5oLTpMeAcPHhwOCz4qaQu8I8TLECdOnVKLIrBJ70goBYtWmT2798fgsICo022C3ASFXL6LJRGeXo5fBRNj16PQK9nVz3Fb40YMaJtDJUDlFhn0CowGUrQXNmicLW5SyGd6CcrLBRgw4JYOVAfhYWh6KRJk8yWzVsMvR6LanGUJK+9e/cKfAU+ceLE0ocFlK9fv5rLly8LKFY7AaKDSybMNX/VyP9A5VzUQjoyiufPn5sPHz6Ei24DBw40c+fODZPGAR4mLvJBVstCFlYS169fL00PSAwR2AhPnjyRY21GgAJwthCFQa9J3sVYUs4mU9xzWWEBh94OS9AAEOLxYYCJDhE4l8uy7A0Dw4a/W7t2rVm5cqWMz8gfkFGYWmZn2WeFpUIqBJZaGHgyQc5XMfKiMzh+/LiZMGGC5NeZASkD9rFgkRAlsbLp06eLswcawVVRrJG89DprS5JPKfzEhoUyUX+E36I5orhLiILiOttwLa7SABYbFpaAryGor1LrkMiYP/g4vT7mJZ0mWWxYWAROHUBYVNSxu2ij17tc01nSOk13XJtcZ1HSlxxOsHwVWqr5pLAcai6FlcJyIOCQNLWsFJYDAYekscdZsfO0A/qWLy3ywFgiz1l1IAizgOjMgDksjzBJYILhaYLgF5YVrPlzs7l165Y8vIawxRybMeBlsGyfVzXXrl0zQ4YMaZuDWrnymW0I7MiPX1i2BlkgZI3q1atXstbF5DvpAIjozIBpGc9WbNy4UR5K8VW+X1hWKpaYucPz/v37cJHQl7Bx8gEazbD6z2ov1hQt0y8sa+4sE9+ou2HqbtTJknS0sCSPWbnAdzFvHTNmjJk6dWpYXNSfhZF5HPiFZZshQlcOqDTLli3LQ5xkLvHhr5AsHWc51E8KK4XlQMAhqVfLwpGy3Kz76DK0g0yxkmrelKUbwxSOkwpeYelaOkLr2CcJwQFC/nr/UssI7wkkxMtrb0jXzQiaG7MvX76ytZz9hqsqmc8+akHcrB02bJhko0MIrbh88s50jVdY1LZ980tGzleuXAmbR6bCC4lX6yKP4cOHy/NiI0eOlHkgTRQr8x28wkIBHvzgRaK3b9+KrElOd7SpU8azZ8+MwLKlEp9E8AoLAbktz5sUFy9eFKGjzSUJBchz6NCh4WtwUYvzXZ5XWNQoj0vu2rVLJtMIm1QtR0FQJsDU0qzrTCR4haW1ypsU48aNE5+V7/1FV22jFtxqO5Zu9s938Dp0UOFwsGEta2SS+3ZLUitOqoK8WpYKqz2R/p8kJ8m7fQLPcZJlJmJZicP5TQWksBzAp7AcYHn1WZRLr8Qz8tww0DfbHeQJk+Kk6SimTJlixo8fL/HEkX9SDjwsPMOBV1gowjcTFi9eLN9MoMxfJ7sZ5OgwGmcNmIcPH5qqP6rkGIBdAhbK8QzXixcvwhcLouOfDolkiIz2anfv3jULFy4US9OeNsNliUZ7tyxeFuelgHXr1oly+UgPKCCzHzt2rLxpxnEUYD75FnqNV1gow5PMvB12586dvJuggkI5pjLMCLocLJRTYDy+3dVCOnRwqNEUVgrLgYBD0tSyUlgOBBySppblACv2OEsHhEw3GKWzlWLQMZzuXXTICkvndToXY//o0SPD9694BqrUAhX++PHj8AUt9GEDHJvqmUmvMpso4/I+p3iSz34B0ty7d08y1LkZe6wsy+WZyvwt8QoFmVXuadOmmevXr//0cmhW4YCVKdhMA3sfMDh//rx8LtNaU/itT46tAIAuiQ15bQXLZzc5tneDggsXLgT2nmPQ+sPe4rC65go5LYsbmNQEc70Nf28wT/95Kh8Rw6S1mWatjU5ykpaAzHyHgk9t7tmzx1RXV8t9Tgup8GYY1RNovG3PpmYcPV8Kxzz/UNG9QibnTNCjHxaKI39Wy4qTwf8pTTrOcqjtFFYKy4GAQ9LUshxg/QtlJxUeHReLhgAAAABJRU5ErkJggg==;" vertex="1" parent="1">
          <mxGeometry x="206.66" y="364.19" width="16.69" height="19.81" as="geometry" />
        </mxCell>
        <UserObject label="&lt;span style=&quot;forced-color-adjust: none; font-family: Helvetica; font-size: 7px; font-style: normal; font-variant-ligatures: normal; font-variant-caps: normal; letter-spacing: normal; orphans: 2; text-align: left; text-indent: 0px; text-transform: none; widows: 2; word-spacing: 0px; -webkit-text-stroke-width: 0px; white-space: normal; text-decoration-thickness: initial; text-decoration-style: initial; text-decoration-color: initial;&quot;&gt;json.log&lt;/span&gt;" link="&lt;b style=&quot;forced-color-adjust: none; color: rgb(0, 0, 0); font-family: Helvetica; font-size: 7px; font-style: normal; font-variant-ligatures: normal; font-variant-caps: normal; letter-spacing: normal; orphans: 2; text-align: left; text-indent: 0px; text-transform: none; widows: 2; word-spacing: 0px; -webkit-text-stroke-width: 0px; white-space: normal; background-color: rgb(236, 236, 236); text-decoration-thickness: initial; text-decoration-style: initial; text-decoration-color: initial;&quot;&gt;json.log&lt;/b&gt;" id="wqFsDlphDBnR6IoxysdR-63">
          <mxCell style="text;whiteSpace=wrap;html=1;fontColor=default;fontStyle=0" vertex="1" parent="1">
            <mxGeometry x="80" y="370" width="30" height="20" as="geometry" />
          </mxCell>
        </UserObject>
        <mxCell id="wqFsDlphDBnR6IoxysdR-67" style="edgeStyle=orthogonalEdgeStyle;rounded=0;orthogonalLoop=1;jettySize=auto;html=1;entryX=0.5;entryY=0;entryDx=0;entryDy=0;dashed=1;dashPattern=1 1;flowAnimation=1;endArrow=openAsync;endFill=0;" edge="1" parent="1" source="wqFsDlphDBnR6IoxysdR-64" target="wqFsDlphDBnR6IoxysdR-39">
          <mxGeometry relative="1" as="geometry" />
        </mxCell>
        <UserObject label="&lt;span style=&quot;forced-color-adjust: none; font-family: Helvetica; font-size: 7px; font-style: normal; font-variant-ligatures: normal; font-variant-caps: normal; letter-spacing: normal; orphans: 2; text-align: left; text-indent: 0px; text-transform: none; widows: 2; word-spacing: 0px; -webkit-text-stroke-width: 0px; white-space: normal; text-decoration-thickness: initial; text-decoration-style: initial; text-decoration-color: initial;&quot;&gt;json.log&lt;/span&gt;" link="&lt;b style=&quot;forced-color-adjust: none; color: rgb(0, 0, 0); font-family: Helvetica; font-size: 7px; font-style: normal; font-variant-ligatures: normal; font-variant-caps: normal; letter-spacing: normal; orphans: 2; text-align: left; text-indent: 0px; text-transform: none; widows: 2; word-spacing: 0px; -webkit-text-stroke-width: 0px; white-space: normal; background-color: rgb(236, 236, 236); text-decoration-thickness: initial; text-decoration-style: initial; text-decoration-color: initial;&quot;&gt;json.log&lt;/b&gt;" id="wqFsDlphDBnR6IoxysdR-64">
          <mxCell style="text;whiteSpace=wrap;html=1;fontColor=default;fontStyle=0;dashed=1;dashPattern=1 1;" vertex="1" parent="1">
            <mxGeometry x="138.67" y="370" width="30" height="20" as="geometry" />
          </mxCell>
        </UserObject>
        <mxCell id="wqFsDlphDBnR6IoxysdR-68" style="edgeStyle=orthogonalEdgeStyle;rounded=0;orthogonalLoop=1;jettySize=auto;html=1;entryX=1;entryY=0.5;entryDx=0;entryDy=0;dashed=1;dashPattern=1 1;flowAnimation=1;endArrow=openAsync;endFill=0;" edge="1" parent="1" source="wqFsDlphDBnR6IoxysdR-65" target="wqFsDlphDBnR6IoxysdR-39">
          <mxGeometry relative="1" as="geometry">
            <Array as="points">
              <mxPoint x="215" y="429" />
            </Array>
          </mxGeometry>
        </mxCell>
        <UserObject label="&lt;span style=&quot;forced-color-adjust: none; font-family: Helvetica; font-size: 7px; font-style: normal; font-variant-ligatures: normal; font-variant-caps: normal; letter-spacing: normal; orphans: 2; text-align: left; text-indent: 0px; text-transform: none; widows: 2; word-spacing: 0px; -webkit-text-stroke-width: 0px; white-space: normal; text-decoration-thickness: initial; text-decoration-style: initial; text-decoration-color: initial;&quot;&gt;json.log&lt;/span&gt;" link="&lt;b style=&quot;forced-color-adjust: none; color: rgb(0, 0, 0); font-family: Helvetica; font-size: 7px; font-style: normal; font-variant-ligatures: normal; font-variant-caps: normal; letter-spacing: normal; orphans: 2; text-align: left; text-indent: 0px; text-transform: none; widows: 2; word-spacing: 0px; -webkit-text-stroke-width: 0px; white-space: normal; background-color: rgb(236, 236, 236); text-decoration-thickness: initial; text-decoration-style: initial; text-decoration-color: initial;&quot;&gt;json.log&lt;/b&gt;" id="wqFsDlphDBnR6IoxysdR-65">
          <mxCell style="text;whiteSpace=wrap;html=1;fontColor=default;fontStyle=0" vertex="1" parent="1">
            <mxGeometry x="200" y="370" width="30" height="20" as="geometry" />
          </mxCell>
        </UserObject>
        <mxCell id="wqFsDlphDBnR6IoxysdR-66" style="edgeStyle=orthogonalEdgeStyle;rounded=0;orthogonalLoop=1;jettySize=auto;html=1;entryX=0;entryY=0.5;entryDx=0;entryDy=0;exitX=0.5;exitY=1;exitDx=0;exitDy=0;strokeWidth=1;dashed=1;dashPattern=1 1;flowAnimation=1;endArrow=openAsync;endFill=0;" edge="1" parent="1" source="wqFsDlphDBnR6IoxysdR-63" target="wqFsDlphDBnR6IoxysdR-39">
          <mxGeometry relative="1" as="geometry">
            <Array as="points">
              <mxPoint x="95" y="429" />
            </Array>
          </mxGeometry>
        </mxCell>
        <mxCell id="wqFsDlphDBnR6IoxysdR-71" style="rounded=0;orthogonalLoop=1;jettySize=auto;html=1;entryX=0;entryY=0.5;entryDx=0;entryDy=0;flowAnimation=1;dashed=1;" edge="1" parent="1" source="wqFsDlphDBnR6IoxysdR-21" target="wqFsDlphDBnR6IoxysdR-2">
          <mxGeometry relative="1" as="geometry" />
        </mxCell>
        <mxCell id="wqFsDlphDBnR6IoxysdR-74" value="push" style="edgeLabel;html=1;align=center;verticalAlign=middle;resizable=0;points=[];" vertex="1" connectable="0" parent="wqFsDlphDBnR6IoxysdR-71">
          <mxGeometry x="-0.1475" y="1" relative="1" as="geometry">
            <mxPoint as="offset" />
          </mxGeometry>
        </mxCell>
        <mxCell id="wqFsDlphDBnR6IoxysdR-72" style="edgeStyle=orthogonalEdgeStyle;rounded=0;orthogonalLoop=1;jettySize=auto;html=1;entryX=1;entryY=0.5;entryDx=0;entryDy=0;dashed=1;flowAnimation=1;" edge="1" parent="1" source="wqFsDlphDBnR6IoxysdR-3" target="wqFsDlphDBnR6IoxysdR-2">
          <mxGeometry relative="1" as="geometry" />
        </mxCell>
        <mxCell id="wqFsDlphDBnR6IoxysdR-73" value="fetch" style="edgeLabel;html=1;align=center;verticalAlign=middle;resizable=0;points=[];" vertex="1" connectable="0" parent="wqFsDlphDBnR6IoxysdR-72">
          <mxGeometry x="-0.1495" y="1" relative="1" as="geometry">
            <mxPoint as="offset" />
          </mxGeometry>
        </mxCell>
        <mxCell id="wqFsDlphDBnR6IoxysdR-79" value="" style="group" vertex="1" connectable="0" parent="1">
          <mxGeometry x="130" y="314" width="50" height="50.000000000000014" as="geometry" />
        </mxCell>
        <mxCell id="wqFsDlphDBnR6IoxysdR-80" value="" style="rounded=1;whiteSpace=wrap;html=1;arcSize=12;" vertex="1" parent="wqFsDlphDBnR6IoxysdR-79">
          <mxGeometry y="1.4210854715202004e-14" width="50" height="50" as="geometry" />
        </mxCell>
        <mxCell id="wqFsDlphDBnR6IoxysdR-81" value="" style="shape=image;verticalLabelPosition=bottom;labelBackgroundColor=default;verticalAlign=top;aspect=fixed;imageAspect=0;image=https://cdn4.iconfinder.com/data/icons/logos-and-brands/512/97_Docker_logo_logos-512.png;" vertex="1" parent="wqFsDlphDBnR6IoxysdR-79">
          <mxGeometry x="6.830000000000041" width="36.35" height="36.35" as="geometry" />
        </mxCell>
        <mxCell id="wqFsDlphDBnR6IoxysdR-82" value="&lt;span style=&quot;color: rgb(0, 0, 0); font-family: Helvetica; font-size: 8px; font-style: normal; font-variant-ligatures: normal; font-variant-caps: normal; font-weight: 700; letter-spacing: normal; orphans: 2; text-indent: 0px; text-transform: none; widows: 2; word-spacing: 0px; -webkit-text-stroke-width: 0px; white-space: normal; text-decoration-thickness: initial; text-decoration-style: initial; text-decoration-color: initial; float: none; display: inline !important;&quot;&gt;app&lt;/span&gt;" style="text;whiteSpace=wrap;html=1;align=center;" vertex="1" parent="wqFsDlphDBnR6IoxysdR-79">
          <mxGeometry x="9.180000000000007" y="23.000000000000014" width="30" height="20" as="geometry" />
        </mxCell>
        <mxCell id="wqFsDlphDBnR6IoxysdR-83" value="" style="group" vertex="1" connectable="0" parent="1">
          <mxGeometry x="191" y="314" width="50" height="50.000000000000014" as="geometry" />
        </mxCell>
        <mxCell id="wqFsDlphDBnR6IoxysdR-84" value="" style="rounded=1;whiteSpace=wrap;html=1;arcSize=12;" vertex="1" parent="wqFsDlphDBnR6IoxysdR-83">
          <mxGeometry y="1.4210854715202004e-14" width="50" height="50" as="geometry" />
        </mxCell>
        <mxCell id="wqFsDlphDBnR6IoxysdR-85" value="" style="shape=image;verticalLabelPosition=bottom;labelBackgroundColor=default;verticalAlign=top;aspect=fixed;imageAspect=0;image=https://cdn4.iconfinder.com/data/icons/logos-and-brands/512/97_Docker_logo_logos-512.png;" vertex="1" parent="wqFsDlphDBnR6IoxysdR-83">
          <mxGeometry x="6.830000000000041" width="36.35" height="36.35" as="geometry" />
        </mxCell>
        <mxCell id="wqFsDlphDBnR6IoxysdR-86" value="&lt;span style=&quot;color: rgb(0, 0, 0); font-family: Helvetica; font-size: 8px; font-style: normal; font-variant-ligatures: normal; font-variant-caps: normal; font-weight: 700; letter-spacing: normal; orphans: 2; text-indent: 0px; text-transform: none; widows: 2; word-spacing: 0px; -webkit-text-stroke-width: 0px; white-space: normal; text-decoration-thickness: initial; text-decoration-style: initial; text-decoration-color: initial; float: none; display: inline !important;&quot;&gt;app&lt;/span&gt;" style="text;whiteSpace=wrap;html=1;align=center;" vertex="1" parent="wqFsDlphDBnR6IoxysdR-83">
          <mxGeometry x="9.180000000000007" y="23.000000000000014" width="30" height="20" as="geometry" />
        </mxCell>
        <mxCell id="wqFsDlphDBnR6IoxysdR-92" value="" style="group" vertex="1" connectable="0" parent="1">
          <mxGeometry x="563" y="276" width="66" height="30" as="geometry" />
        </mxCell>
        <mxCell id="wqFsDlphDBnR6IoxysdR-90" value="agfianf" style="text;html=1;align=center;verticalAlign=middle;whiteSpace=wrap;rounded=0;fontColor=#676767;fontSize=9;" vertex="1" parent="wqFsDlphDBnR6IoxysdR-92">
          <mxGeometry x="6" width="60" height="30" as="geometry" />
        </mxCell>
        <mxCell id="wqFsDlphDBnR6IoxysdR-91" value="" style="shape=image;verticalLabelPosition=bottom;labelBackgroundColor=default;verticalAlign=top;aspect=fixed;imageAspect=0;image=https://img.icons8.com/m_outlined/512/github.png;" vertex="1" parent="wqFsDlphDBnR6IoxysdR-92">
          <mxGeometry y="4.75" width="20.5" height="20.5" as="geometry" />
        </mxCell>
        <mxCell id="wqFsDlphDBnR6IoxysdR-93" value="Node" style="text;html=1;align=center;verticalAlign=middle;whiteSpace=wrap;rounded=0;" vertex="1" parent="1">
          <mxGeometry x="46" y="266" width="60" height="30" as="geometry" />
        </mxCell>
      </root>
    </mxGraphModel>
  </diagram>
</mxfile>
